<mxfile host="app.diagrams.net" modified="2023-12-19T07:47:22.238Z" agent="5.0 (Macintosh; Intel Mac OS X 10_15_7) AppleWebKit/537.36 (KHTML, like Gecko) Chrome/120.0.0.0 Safari/537.36" etag="f-7yIpavQjrbaPJQ9Arm" version="20.0.3" type="github">
  <diagram id="BQZFZdDCKB20yswPD44x" name="Page-1">
    <mxGraphModel dx="804" dy="785" grid="1" gridSize="10" guides="1" tooltips="1" connect="1" arrows="1" fold="1" page="1" pageScale="1" pageWidth="850" pageHeight="1100" math="0" shadow="0">
      <root>
        <mxCell id="0" />
        <mxCell id="1" parent="0" />
        <mxCell id="NPrV1eRzhio2z3iI3J3L-5" value="否" style="edgeStyle=orthogonalEdgeStyle;rounded=0;orthogonalLoop=1;jettySize=auto;html=1;exitX=0;exitY=0.5;exitDx=0;exitDy=0;entryX=0.5;entryY=0;entryDx=0;entryDy=0;" edge="1" parent="1" source="NPrV1eRzhio2z3iI3J3L-8" target="NPrV1eRzhio2z3iI3J3L-2">
          <mxGeometry relative="1" as="geometry" />
        </mxCell>
        <mxCell id="NPrV1eRzhio2z3iI3J3L-6" value="是" style="edgeStyle=orthogonalEdgeStyle;rounded=0;orthogonalLoop=1;jettySize=auto;html=1;exitX=1;exitY=0.5;exitDx=0;exitDy=0;entryX=0.5;entryY=0;entryDx=0;entryDy=0;" edge="1" parent="1" source="NPrV1eRzhio2z3iI3J3L-8" target="NPrV1eRzhio2z3iI3J3L-10">
          <mxGeometry relative="1" as="geometry">
            <mxPoint x="400" y="370" as="targetPoint" />
          </mxGeometry>
        </mxCell>
        <mxCell id="NPrV1eRzhio2z3iI3J3L-9" style="edgeStyle=orthogonalEdgeStyle;rounded=0;orthogonalLoop=1;jettySize=auto;html=1;exitX=0.5;exitY=1;exitDx=0;exitDy=0;entryX=0.5;entryY=0;entryDx=0;entryDy=0;" edge="1" parent="1" source="NPrV1eRzhio2z3iI3J3L-1" target="NPrV1eRzhio2z3iI3J3L-8">
          <mxGeometry relative="1" as="geometry" />
        </mxCell>
        <mxCell id="NPrV1eRzhio2z3iI3J3L-22" value="点击输入框，新增筛选" style="edgeLabel;html=1;align=center;verticalAlign=middle;resizable=0;points=[];" vertex="1" connectable="0" parent="NPrV1eRzhio2z3iI3J3L-9">
          <mxGeometry x="-0.12" relative="1" as="geometry">
            <mxPoint as="offset" />
          </mxGeometry>
        </mxCell>
        <mxCell id="NPrV1eRzhio2z3iI3J3L-24" value="点击已有的 Item" style="edgeStyle=orthogonalEdgeStyle;rounded=0;orthogonalLoop=1;jettySize=auto;html=1;exitX=1;exitY=0.5;exitDx=0;exitDy=0;entryX=0.5;entryY=0;entryDx=0;entryDy=0;" edge="1" parent="1" source="NPrV1eRzhio2z3iI3J3L-34">
          <mxGeometry relative="1" as="geometry">
            <mxPoint x="699.9999999999998" y="300" as="targetPoint" />
          </mxGeometry>
        </mxCell>
        <mxCell id="NPrV1eRzhio2z3iI3J3L-1" value="Input" style="rounded=0;whiteSpace=wrap;html=1;" vertex="1" parent="1">
          <mxGeometry x="180" y="160" width="160" height="60" as="geometry" />
        </mxCell>
        <mxCell id="NPrV1eRzhio2z3iI3J3L-19" style="edgeStyle=orthogonalEdgeStyle;rounded=0;orthogonalLoop=1;jettySize=auto;html=1;exitX=1;exitY=0.5;exitDx=0;exitDy=0;entryX=0.5;entryY=0;entryDx=0;entryDy=0;" edge="1" parent="1" source="NPrV1eRzhio2z3iI3J3L-2" target="NPrV1eRzhio2z3iI3J3L-10">
          <mxGeometry relative="1" as="geometry" />
        </mxCell>
        <mxCell id="NPrV1eRzhio2z3iI3J3L-2" value="展示单选选择，选择一个筛选项" style="rounded=0;whiteSpace=wrap;html=1;" vertex="1" parent="1">
          <mxGeometry x="40" y="340" width="120" height="60" as="geometry" />
        </mxCell>
        <mxCell id="NPrV1eRzhio2z3iI3J3L-8" value="是否选择了筛选项" style="rhombus;whiteSpace=wrap;html=1;" vertex="1" parent="1">
          <mxGeometry x="220" y="270" width="80" height="80" as="geometry" />
        </mxCell>
        <mxCell id="NPrV1eRzhio2z3iI3J3L-12" style="edgeStyle=orthogonalEdgeStyle;rounded=0;orthogonalLoop=1;jettySize=auto;html=1;exitX=0;exitY=0.5;exitDx=0;exitDy=0;entryX=0.5;entryY=0;entryDx=0;entryDy=0;" edge="1" parent="1" source="NPrV1eRzhio2z3iI3J3L-10" target="NPrV1eRzhio2z3iI3J3L-11">
          <mxGeometry relative="1" as="geometry" />
        </mxCell>
        <mxCell id="NPrV1eRzhio2z3iI3J3L-13" value="是" style="edgeLabel;html=1;align=center;verticalAlign=middle;resizable=0;points=[];" vertex="1" connectable="0" parent="NPrV1eRzhio2z3iI3J3L-12">
          <mxGeometry x="-0.0545" y="2" relative="1" as="geometry">
            <mxPoint as="offset" />
          </mxGeometry>
        </mxCell>
        <mxCell id="NPrV1eRzhio2z3iI3J3L-17" style="edgeStyle=orthogonalEdgeStyle;rounded=0;orthogonalLoop=1;jettySize=auto;html=1;exitX=1;exitY=0.5;exitDx=0;exitDy=0;entryX=0.5;entryY=0;entryDx=0;entryDy=0;" edge="1" parent="1" source="NPrV1eRzhio2z3iI3J3L-10" target="NPrV1eRzhio2z3iI3J3L-16">
          <mxGeometry relative="1" as="geometry" />
        </mxCell>
        <mxCell id="NPrV1eRzhio2z3iI3J3L-18" value="否" style="edgeLabel;html=1;align=center;verticalAlign=middle;resizable=0;points=[];" vertex="1" connectable="0" parent="NPrV1eRzhio2z3iI3J3L-17">
          <mxGeometry x="-0.14" y="-1" relative="1" as="geometry">
            <mxPoint as="offset" />
          </mxGeometry>
        </mxCell>
        <mxCell id="NPrV1eRzhio2z3iI3J3L-10" value="当前类型是否只要输入文本" style="rhombus;whiteSpace=wrap;html=1;" vertex="1" parent="1">
          <mxGeometry x="370" y="390" width="80" height="80" as="geometry" />
        </mxCell>
        <mxCell id="NPrV1eRzhio2z3iI3J3L-15" style="edgeStyle=orthogonalEdgeStyle;rounded=0;orthogonalLoop=1;jettySize=auto;html=1;exitX=0.5;exitY=1;exitDx=0;exitDy=0;entryX=0;entryY=0.5;entryDx=0;entryDy=0;" edge="1" parent="1" source="NPrV1eRzhio2z3iI3J3L-11" target="NPrV1eRzhio2z3iI3J3L-20">
          <mxGeometry relative="1" as="geometry">
            <mxPoint x="310" y="670" as="targetPoint" />
          </mxGeometry>
        </mxCell>
        <mxCell id="NPrV1eRzhio2z3iI3J3L-28" value="回车" style="edgeLabel;html=1;align=center;verticalAlign=middle;resizable=0;points=[];" vertex="1" connectable="0" parent="NPrV1eRzhio2z3iI3J3L-15">
          <mxGeometry x="0.0731" y="1" relative="1" as="geometry">
            <mxPoint as="offset" />
          </mxGeometry>
        </mxCell>
        <mxCell id="NPrV1eRzhio2z3iI3J3L-11" value="普通输入框" style="rounded=0;whiteSpace=wrap;html=1;" vertex="1" parent="1">
          <mxGeometry x="260" y="490" width="120" height="60" as="geometry" />
        </mxCell>
        <mxCell id="NPrV1eRzhio2z3iI3J3L-21" style="edgeStyle=orthogonalEdgeStyle;rounded=0;orthogonalLoop=1;jettySize=auto;html=1;exitX=0.5;exitY=1;exitDx=0;exitDy=0;" edge="1" parent="1" source="NPrV1eRzhio2z3iI3J3L-16" target="NPrV1eRzhio2z3iI3J3L-20">
          <mxGeometry relative="1" as="geometry" />
        </mxCell>
        <mxCell id="NPrV1eRzhio2z3iI3J3L-29" value="满足选中条件并确认" style="edgeLabel;html=1;align=center;verticalAlign=middle;resizable=0;points=[];" vertex="1" connectable="0" parent="NPrV1eRzhio2z3iI3J3L-21">
          <mxGeometry x="-0.1195" y="-2" relative="1" as="geometry">
            <mxPoint as="offset" />
          </mxGeometry>
        </mxCell>
        <mxCell id="NPrV1eRzhio2z3iI3J3L-16" value="根据不同类型展示不同类型的下拉" style="rounded=0;whiteSpace=wrap;html=1;" vertex="1" parent="1">
          <mxGeometry x="430" y="490" width="120" height="60" as="geometry" />
        </mxCell>
        <mxCell id="NPrV1eRzhio2z3iI3J3L-39" style="edgeStyle=orthogonalEdgeStyle;rounded=0;orthogonalLoop=1;jettySize=auto;html=1;exitX=1;exitY=0.5;exitDx=0;exitDy=0;entryX=1;entryY=0.5;entryDx=0;entryDy=0;" edge="1" parent="1" source="NPrV1eRzhio2z3iI3J3L-20" target="NPrV1eRzhio2z3iI3J3L-33">
          <mxGeometry relative="1" as="geometry">
            <Array as="points">
              <mxPoint x="750" y="690" />
              <mxPoint x="750" y="60" />
            </Array>
          </mxGeometry>
        </mxCell>
        <mxCell id="NPrV1eRzhio2z3iI3J3L-20" value="添加/替换一个 Item" style="rounded=0;whiteSpace=wrap;html=1;" vertex="1" parent="1">
          <mxGeometry x="430" y="660" width="120" height="60" as="geometry" />
        </mxCell>
        <mxCell id="NPrV1eRzhio2z3iI3J3L-30" value="是" style="edgeStyle=orthogonalEdgeStyle;rounded=0;orthogonalLoop=1;jettySize=auto;html=1;exitX=0;exitY=0.5;exitDx=0;exitDy=0;entryX=0.5;entryY=0;entryDx=0;entryDy=0;" edge="1" parent="1" source="NPrV1eRzhio2z3iI3J3L-25" target="NPrV1eRzhio2z3iI3J3L-16">
          <mxGeometry relative="1" as="geometry" />
        </mxCell>
        <mxCell id="NPrV1eRzhio2z3iI3J3L-31" style="edgeStyle=orthogonalEdgeStyle;rounded=0;orthogonalLoop=1;jettySize=auto;html=1;exitX=0.5;exitY=1;exitDx=0;exitDy=0;entryX=1;entryY=0.5;entryDx=0;entryDy=0;" edge="1" parent="1" source="NPrV1eRzhio2z3iI3J3L-25" target="NPrV1eRzhio2z3iI3J3L-26">
          <mxGeometry relative="1" as="geometry" />
        </mxCell>
        <mxCell id="NPrV1eRzhio2z3iI3J3L-32" value="否" style="edgeLabel;html=1;align=center;verticalAlign=middle;resizable=0;points=[];" vertex="1" connectable="0" parent="NPrV1eRzhio2z3iI3J3L-31">
          <mxGeometry x="-0.4745" y="-2" relative="1" as="geometry">
            <mxPoint as="offset" />
          </mxGeometry>
        </mxCell>
        <mxCell id="NPrV1eRzhio2z3iI3J3L-25" value="判断类型是否为文本" style="rhombus;whiteSpace=wrap;html=1;" vertex="1" parent="1">
          <mxGeometry x="660" y="300" width="80" height="80" as="geometry" />
        </mxCell>
        <mxCell id="NPrV1eRzhio2z3iI3J3L-41" style="edgeStyle=orthogonalEdgeStyle;rounded=0;orthogonalLoop=1;jettySize=auto;html=1;exitX=0.5;exitY=1;exitDx=0;exitDy=0;entryX=1;entryY=0;entryDx=0;entryDy=0;" edge="1" parent="1" source="NPrV1eRzhio2z3iI3J3L-26" target="NPrV1eRzhio2z3iI3J3L-20">
          <mxGeometry relative="1" as="geometry">
            <Array as="points">
              <mxPoint x="620" y="630" />
              <mxPoint x="550" y="630" />
            </Array>
          </mxGeometry>
        </mxCell>
        <mxCell id="NPrV1eRzhio2z3iI3J3L-42" value="回车" style="edgeLabel;html=1;align=center;verticalAlign=middle;resizable=0;points=[];" vertex="1" connectable="0" parent="NPrV1eRzhio2z3iI3J3L-41">
          <mxGeometry x="-0.3706" y="3" relative="1" as="geometry">
            <mxPoint as="offset" />
          </mxGeometry>
        </mxCell>
        <mxCell id="NPrV1eRzhio2z3iI3J3L-26" value="使用 contenteditable 模拟的输入框" style="rounded=0;whiteSpace=wrap;html=1;" vertex="1" parent="1">
          <mxGeometry x="560" y="490" width="120" height="60" as="geometry" />
        </mxCell>
        <mxCell id="NPrV1eRzhio2z3iI3J3L-35" style="edgeStyle=orthogonalEdgeStyle;rounded=0;orthogonalLoop=1;jettySize=auto;html=1;exitX=0.5;exitY=1;exitDx=0;exitDy=0;entryX=0.5;entryY=0;entryDx=0;entryDy=0;" edge="1" parent="1" source="NPrV1eRzhio2z3iI3J3L-33" target="NPrV1eRzhio2z3iI3J3L-1">
          <mxGeometry relative="1" as="geometry" />
        </mxCell>
        <mxCell id="NPrV1eRzhio2z3iI3J3L-38" value="1 / 1" style="edgeLabel;html=1;align=center;verticalAlign=middle;resizable=0;points=[];" vertex="1" connectable="0" parent="NPrV1eRzhio2z3iI3J3L-35">
          <mxGeometry x="0.609" relative="1" as="geometry">
            <mxPoint as="offset" />
          </mxGeometry>
        </mxCell>
        <mxCell id="NPrV1eRzhio2z3iI3J3L-36" style="edgeStyle=orthogonalEdgeStyle;rounded=0;orthogonalLoop=1;jettySize=auto;html=1;exitX=0.5;exitY=1;exitDx=0;exitDy=0;entryX=0.5;entryY=0;entryDx=0;entryDy=0;" edge="1" parent="1" source="NPrV1eRzhio2z3iI3J3L-33" target="NPrV1eRzhio2z3iI3J3L-34">
          <mxGeometry relative="1" as="geometry" />
        </mxCell>
        <mxCell id="NPrV1eRzhio2z3iI3J3L-37" value="1 / n" style="edgeLabel;html=1;align=center;verticalAlign=middle;resizable=0;points=[];" vertex="1" connectable="0" parent="NPrV1eRzhio2z3iI3J3L-36">
          <mxGeometry x="0.461" y="1" relative="1" as="geometry">
            <mxPoint as="offset" />
          </mxGeometry>
        </mxCell>
        <mxCell id="NPrV1eRzhio2z3iI3J3L-33" value="searchbox" style="rounded=0;whiteSpace=wrap;html=1;" vertex="1" parent="1">
          <mxGeometry x="280" y="30" width="160" height="60" as="geometry" />
        </mxCell>
        <mxCell id="NPrV1eRzhio2z3iI3J3L-34" value="Item" style="rounded=0;whiteSpace=wrap;html=1;" vertex="1" parent="1">
          <mxGeometry x="390" y="160" width="120" height="60" as="geometry" />
        </mxCell>
      </root>
    </mxGraphModel>
  </diagram>
</mxfile>
